<mxfile host="Electron" modified="2025-04-20T10:13:41.936Z" agent="Mozilla/5.0 (Windows NT 10.0; Win64; x64) AppleWebKit/537.36 (KHTML, like Gecko) draw.io/21.6.8 Chrome/114.0.5735.289 Electron/25.5.0 Safari/537.36" etag="-5WCyeYiZM9h2RY3hlWg" version="21.6.8" type="device">
  <diagram name="Page-1" id="2YBvvXClWsGukQMizWep">
    <mxGraphModel dx="5885" dy="2090" grid="1" gridSize="10" guides="1" tooltips="1" connect="1" arrows="1" fold="1" page="1" pageScale="1" pageWidth="850" pageHeight="1100" math="0" shadow="0">
      <root>
        <mxCell id="0" />
        <mxCell id="1" parent="0" />
        <mxCell id="_C8xXGKPiyyqe-oRyFKB-127" value="" style="endArrow=none;dashed=1;html=1;rounded=0;" edge="1" parent="1">
          <mxGeometry width="50" height="50" relative="1" as="geometry">
            <mxPoint x="-1460.34" y="150" as="sourcePoint" />
            <mxPoint x="-1460" y="1360" as="targetPoint" />
          </mxGeometry>
        </mxCell>
        <mxCell id="_C8xXGKPiyyqe-oRyFKB-1" value="User" style="shape=umlActor;verticalLabelPosition=bottom;verticalAlign=top;html=1;outlineConnect=0;" vertex="1" parent="1">
          <mxGeometry x="-1680" y="40" width="40" height="80" as="geometry" />
        </mxCell>
        <mxCell id="_C8xXGKPiyyqe-oRyFKB-3" value="Admin" style="shape=umlActor;verticalLabelPosition=bottom;verticalAlign=top;html=1;outlineConnect=0;" vertex="1" parent="1">
          <mxGeometry x="-1480" y="40" width="40" height="80" as="geometry" />
        </mxCell>
        <mxCell id="_C8xXGKPiyyqe-oRyFKB-5" value="" style="endArrow=none;dashed=1;html=1;rounded=0;" edge="1" parent="1">
          <mxGeometry width="50" height="50" relative="1" as="geometry">
            <mxPoint x="-1660" y="200" as="sourcePoint" />
            <mxPoint x="-1660" y="150" as="targetPoint" />
          </mxGeometry>
        </mxCell>
        <mxCell id="_C8xXGKPiyyqe-oRyFKB-7" value="" style="endArrow=classic;html=1;rounded=0;entryX=0.5;entryY=0.138;entryDx=0;entryDy=0;entryPerimeter=0;" edge="1" parent="1">
          <mxGeometry width="50" height="50" relative="1" as="geometry">
            <mxPoint x="-1660" y="174" as="sourcePoint" />
            <mxPoint x="-1655" y="217.80000000000007" as="targetPoint" />
            <Array as="points">
              <mxPoint x="-1625" y="174" />
              <mxPoint x="-1625" y="218" />
            </Array>
          </mxGeometry>
        </mxCell>
        <mxCell id="_C8xXGKPiyyqe-oRyFKB-11" value="" style="endArrow=classic;html=1;rounded=0;" edge="1" parent="1">
          <mxGeometry width="50" height="50" relative="1" as="geometry">
            <mxPoint x="-1655" y="270" as="sourcePoint" />
            <mxPoint x="-1245" y="270" as="targetPoint" />
          </mxGeometry>
        </mxCell>
        <mxCell id="_C8xXGKPiyyqe-oRyFKB-12" value="" style="shape=note2;boundedLbl=1;whiteSpace=wrap;html=1;size=11;verticalAlign=top;align=center;" vertex="1" parent="1">
          <mxGeometry x="-1640" y="225" width="270" height="30" as="geometry" />
        </mxCell>
        <mxCell id="_C8xXGKPiyyqe-oRyFKB-13" value="Creates user with fullName. Password. email. etc." style="text;html=1;align=center;verticalAlign=middle;resizable=0;points=[];autosize=1;strokeColor=none;fillColor=none;rotation=0;" vertex="1" parent="1">
          <mxGeometry x="-1650" y="225" width="290" height="30" as="geometry" />
        </mxCell>
        <mxCell id="_C8xXGKPiyyqe-oRyFKB-14" value="enable2FA" style="text;html=1;align=center;verticalAlign=middle;resizable=0;points=[];autosize=1;strokeColor=none;fillColor=none;" vertex="1" parent="1">
          <mxGeometry x="-1659" y="249" width="80" height="30" as="geometry" />
        </mxCell>
        <mxCell id="_C8xXGKPiyyqe-oRyFKB-15" value="" style="html=1;labelBackgroundColor=#ffffff;startArrow=none;startFill=0;startSize=6;endArrow=classic;endFill=1;endSize=6;jettySize=auto;orthogonalLoop=1;strokeWidth=1;dashed=1;fontSize=14;rounded=0;entryX=0.087;entryY=1.067;entryDx=0;entryDy=0;entryPerimeter=0;exitX=0.5;exitY=1;exitDx=0;exitDy=0;exitPerimeter=0;" edge="1" parent="1" source="_C8xXGKPiyyqe-oRyFKB-16">
          <mxGeometry width="60" height="60" relative="1" as="geometry">
            <mxPoint x="-1250" y="298" as="sourcePoint" />
            <mxPoint x="-1655.3" y="300.01" as="targetPoint" />
          </mxGeometry>
        </mxCell>
        <mxCell id="_C8xXGKPiyyqe-oRyFKB-18" value="Login Session" style="rounded=1;whiteSpace=wrap;html=1;" vertex="1" parent="1">
          <mxGeometry x="-1392" y="40" width="80" height="40" as="geometry" />
        </mxCell>
        <mxCell id="_C8xXGKPiyyqe-oRyFKB-19" value="2FA enabled" style="text;html=1;align=center;verticalAlign=middle;resizable=0;points=[];autosize=1;strokeColor=none;fillColor=none;" vertex="1" parent="1">
          <mxGeometry x="-1662" y="274" width="90" height="30" as="geometry" />
        </mxCell>
        <mxCell id="_C8xXGKPiyyqe-oRyFKB-21" value="" style="endArrow=none;dashed=1;html=1;rounded=0;" edge="1" parent="1" source="_C8xXGKPiyyqe-oRyFKB-140">
          <mxGeometry width="50" height="50" relative="1" as="geometry">
            <mxPoint x="-1660" y="300" as="sourcePoint" />
            <mxPoint x="-1660" y="1800" as="targetPoint" />
          </mxGeometry>
        </mxCell>
        <mxCell id="_C8xXGKPiyyqe-oRyFKB-22" value="" style="endArrow=none;dashed=1;html=1;rounded=0;" edge="1" parent="1" source="_C8xXGKPiyyqe-oRyFKB-137">
          <mxGeometry width="50" height="50" relative="1" as="geometry">
            <mxPoint x="-1354" y="440" as="sourcePoint" />
            <mxPoint x="-1370" y="1800" as="targetPoint" />
          </mxGeometry>
        </mxCell>
        <mxCell id="_C8xXGKPiyyqe-oRyFKB-23" value="" style="endArrow=classic;html=1;rounded=0;" edge="1" parent="1" target="_C8xXGKPiyyqe-oRyFKB-24">
          <mxGeometry width="50" height="50" relative="1" as="geometry">
            <mxPoint x="-1659" y="360" as="sourcePoint" />
            <mxPoint x="-1360" y="360" as="targetPoint" />
          </mxGeometry>
        </mxCell>
        <mxCell id="_C8xXGKPiyyqe-oRyFKB-25" value="" style="endArrow=none;dashed=1;html=1;rounded=0;" edge="1" parent="1" target="_C8xXGKPiyyqe-oRyFKB-24">
          <mxGeometry width="50" height="50" relative="1" as="geometry">
            <mxPoint x="-1352.42" y="80" as="sourcePoint" />
            <mxPoint x="-1352" y="520" as="targetPoint" />
          </mxGeometry>
        </mxCell>
        <mxCell id="_C8xXGKPiyyqe-oRyFKB-24" value="" style="html=1;points=[];perimeter=orthogonalPerimeter;outlineConnect=0;targetShapes=umlLifeline;portConstraint=eastwest;newEdgeStyle={&quot;edgeStyle&quot;:&quot;elbowEdgeStyle&quot;,&quot;elbow&quot;:&quot;vertical&quot;,&quot;curved&quot;:0,&quot;rounded&quot;:0};" vertex="1" parent="1">
          <mxGeometry x="-1357" y="360" width="10" height="80" as="geometry" />
        </mxCell>
        <mxCell id="_C8xXGKPiyyqe-oRyFKB-26" value="" style="html=1;labelBackgroundColor=#ffffff;startArrow=none;startFill=0;startSize=6;endArrow=classic;endFill=1;endSize=6;jettySize=auto;orthogonalLoop=1;strokeWidth=1;dashed=1;fontSize=14;rounded=0;" edge="1" parent="1">
          <mxGeometry width="60" height="60" relative="1" as="geometry">
            <mxPoint x="-1352" y="440" as="sourcePoint" />
            <mxPoint x="-1655" y="439" as="targetPoint" />
          </mxGeometry>
        </mxCell>
        <mxCell id="_C8xXGKPiyyqe-oRyFKB-27" value="Security" style="rounded=1;whiteSpace=wrap;html=1;" vertex="1" parent="1">
          <mxGeometry x="-1280" y="40" width="80" height="40" as="geometry" />
        </mxCell>
        <mxCell id="_C8xXGKPiyyqe-oRyFKB-28" value="" style="endArrow=none;dashed=1;html=1;rounded=0;" edge="1" parent="1" source="_C8xXGKPiyyqe-oRyFKB-29">
          <mxGeometry width="50" height="50" relative="1" as="geometry">
            <mxPoint x="-1240.42" y="80" as="sourcePoint" />
            <mxPoint x="-1240" y="1800" as="targetPoint" />
          </mxGeometry>
        </mxCell>
        <mxCell id="_C8xXGKPiyyqe-oRyFKB-16" value="" style="html=1;points=[];perimeter=orthogonalPerimeter;outlineConnect=0;targetShapes=umlLifeline;portConstraint=eastwest;newEdgeStyle={&quot;edgeStyle&quot;:&quot;elbowEdgeStyle&quot;,&quot;elbow&quot;:&quot;vertical&quot;,&quot;curved&quot;:0,&quot;rounded&quot;:0};fillStyle=solid;fillColor=#FFFFFF;" vertex="1" parent="1">
          <mxGeometry x="-1245" y="270" width="10" height="30" as="geometry" />
        </mxCell>
        <mxCell id="_C8xXGKPiyyqe-oRyFKB-30" value="" style="endArrow=none;dashed=1;html=1;rounded=0;" edge="1" parent="1" target="_C8xXGKPiyyqe-oRyFKB-29">
          <mxGeometry width="50" height="50" relative="1" as="geometry">
            <mxPoint x="-1240.42" y="80" as="sourcePoint" />
            <mxPoint x="-1240" y="520" as="targetPoint" />
          </mxGeometry>
        </mxCell>
        <mxCell id="_C8xXGKPiyyqe-oRyFKB-29" value="" style="html=1;points=[];perimeter=orthogonalPerimeter;outlineConnect=0;targetShapes=umlLifeline;portConstraint=eastwest;newEdgeStyle={&quot;edgeStyle&quot;:&quot;elbowEdgeStyle&quot;,&quot;elbow&quot;:&quot;vertical&quot;,&quot;curved&quot;:0,&quot;rounded&quot;:0};fillStyle=solid;fillColor=#FFFFFF;" vertex="1" parent="1">
          <mxGeometry x="-1245" y="370" width="10" height="30" as="geometry" />
        </mxCell>
        <mxCell id="_C8xXGKPiyyqe-oRyFKB-31" value="" style="edgeStyle=none;orthogonalLoop=1;jettySize=auto;html=1;rounded=0;fontFamily=Helvetica;fontSize=12;fontColor=default;" edge="1" parent="1">
          <mxGeometry width="80" relative="1" as="geometry">
            <mxPoint x="-1347" y="370" as="sourcePoint" />
            <mxPoint x="-1245" y="370" as="targetPoint" />
            <Array as="points" />
          </mxGeometry>
        </mxCell>
        <mxCell id="_C8xXGKPiyyqe-oRyFKB-32" value="" style="html=1;labelBackgroundColor=#ffffff;startArrow=none;startFill=0;startSize=6;endArrow=classic;endFill=1;endSize=6;jettySize=auto;orthogonalLoop=1;strokeWidth=1;dashed=1;fontSize=14;rounded=0;fontFamily=Helvetica;fontColor=default;" edge="1" parent="1" target="_C8xXGKPiyyqe-oRyFKB-24">
          <mxGeometry width="60" height="60" relative="1" as="geometry">
            <mxPoint x="-1245" y="399.84000000000003" as="sourcePoint" />
            <mxPoint x="-1292" y="399.84000000000003" as="targetPoint" />
          </mxGeometry>
        </mxCell>
        <mxCell id="_C8xXGKPiyyqe-oRyFKB-33" value="loginAttempts" style="text;html=1;align=center;verticalAlign=middle;resizable=0;points=[];autosize=1;strokeColor=none;fillColor=none;fontSize=12;fontFamily=Helvetica;fontColor=default;" vertex="1" parent="1">
          <mxGeometry x="-1354" y="347" width="100" height="30" as="geometry" />
        </mxCell>
        <mxCell id="_C8xXGKPiyyqe-oRyFKB-34" value="status = &quot;Success&quot;" style="text;html=1;align=center;verticalAlign=middle;resizable=0;points=[];autosize=1;strokeColor=none;fillColor=none;fontSize=12;fontFamily=Helvetica;fontColor=default;" vertex="1" parent="1">
          <mxGeometry x="-1355" y="376" width="120" height="30" as="geometry" />
        </mxCell>
        <mxCell id="_C8xXGKPiyyqe-oRyFKB-35" value="" style="edgeStyle=none;orthogonalLoop=1;jettySize=auto;html=1;rounded=0;fontFamily=Helvetica;fontSize=12;fontColor=default;" edge="1" parent="1" target="_C8xXGKPiyyqe-oRyFKB-24">
          <mxGeometry width="80" relative="1" as="geometry">
            <mxPoint x="-1347" y="410" as="sourcePoint" />
            <mxPoint x="-1344" y="430" as="targetPoint" />
            <Array as="points">
              <mxPoint x="-1317" y="410" />
              <mxPoint x="-1317" y="430" />
            </Array>
          </mxGeometry>
        </mxCell>
        <mxCell id="_C8xXGKPiyyqe-oRyFKB-36" value="resetAttempts" style="text;html=1;align=center;verticalAlign=middle;resizable=0;points=[];autosize=1;strokeColor=none;fillColor=none;fontSize=12;fontFamily=Helvetica;fontColor=default;" vertex="1" parent="1">
          <mxGeometry x="-1325" y="406" width="100" height="30" as="geometry" />
        </mxCell>
        <mxCell id="_C8xXGKPiyyqe-oRyFKB-37" value="logInSuccess" style="text;html=1;align=center;verticalAlign=middle;resizable=0;points=[];autosize=1;strokeColor=none;fillColor=none;fontSize=12;fontFamily=Helvetica;fontColor=default;" vertex="1" parent="1">
          <mxGeometry x="-1665" y="408" width="90" height="30" as="geometry" />
        </mxCell>
        <mxCell id="_C8xXGKPiyyqe-oRyFKB-39" value="updateProfile" style="html=1;align=left;spacingLeft=2;endArrow=block;rounded=0;edgeStyle=orthogonalEdgeStyle;curved=0;rounded=0;fontFamily=Helvetica;fontSize=12;fontColor=default;" edge="1" parent="1">
          <mxGeometry relative="1" as="geometry">
            <mxPoint x="-1655" y="450" as="sourcePoint" />
            <Array as="points">
              <mxPoint x="-1634" y="480" />
            </Array>
            <mxPoint x="-1655" y="480" as="targetPoint" />
          </mxGeometry>
        </mxCell>
        <mxCell id="_C8xXGKPiyyqe-oRyFKB-40" value="" style="edgeStyle=none;orthogonalLoop=1;jettySize=auto;html=1;rounded=0;fontFamily=Helvetica;fontSize=12;fontColor=default;" edge="1" parent="1" target="_C8xXGKPiyyqe-oRyFKB-45">
          <mxGeometry width="80" relative="1" as="geometry">
            <mxPoint x="-1654" y="507" as="sourcePoint" />
            <mxPoint x="-1130" y="510" as="targetPoint" />
            <Array as="points" />
          </mxGeometry>
        </mxCell>
        <mxCell id="_C8xXGKPiyyqe-oRyFKB-41" value="Account" style="rounded=1;whiteSpace=wrap;html=1;" vertex="1" parent="1">
          <mxGeometry x="-1161" y="41" width="80" height="40" as="geometry" />
        </mxCell>
        <mxCell id="_C8xXGKPiyyqe-oRyFKB-42" value="" style="endArrow=none;dashed=1;html=1;rounded=0;" edge="1" parent="1">
          <mxGeometry width="50" height="50" relative="1" as="geometry">
            <mxPoint x="-1121.42" y="81" as="sourcePoint" />
            <mxPoint x="-1121" y="540" as="targetPoint" />
          </mxGeometry>
        </mxCell>
        <mxCell id="_C8xXGKPiyyqe-oRyFKB-45" value="" style="html=1;points=[];perimeter=orthogonalPerimeter;outlineConnect=0;targetShapes=umlLifeline;portConstraint=eastwest;newEdgeStyle={&quot;edgeStyle&quot;:&quot;elbowEdgeStyle&quot;,&quot;elbow&quot;:&quot;vertical&quot;,&quot;curved&quot;:0,&quot;rounded&quot;:0};strokeColor=default;fontFamily=Helvetica;fontSize=12;fontColor=default;fillColor=default;" vertex="1" parent="1">
          <mxGeometry x="-1126" y="507" width="10" height="173" as="geometry" />
        </mxCell>
        <mxCell id="_C8xXGKPiyyqe-oRyFKB-46" value="addBankAccount" style="text;html=1;align=center;verticalAlign=middle;resizable=0;points=[];autosize=1;strokeColor=none;fillColor=none;fontSize=12;fontFamily=Helvetica;fontColor=default;" vertex="1" parent="1">
          <mxGeometry x="-1657" y="484" width="110" height="30" as="geometry" />
        </mxCell>
        <mxCell id="_C8xXGKPiyyqe-oRyFKB-48" value="validateUPIId" style="html=1;align=left;spacingLeft=2;endArrow=block;rounded=0;edgeStyle=orthogonalEdgeStyle;curved=0;rounded=0;fontFamily=Helvetica;fontSize=12;fontColor=default;" edge="1" parent="1">
          <mxGeometry relative="1" as="geometry">
            <mxPoint x="-1116" y="519" as="sourcePoint" />
            <Array as="points">
              <mxPoint x="-1086" y="519" />
              <mxPoint x="-1086" y="549" />
            </Array>
            <mxPoint x="-1116" y="549" as="targetPoint" />
          </mxGeometry>
        </mxCell>
        <mxCell id="_C8xXGKPiyyqe-oRyFKB-50" value="" style="html=1;labelBackgroundColor=#ffffff;startArrow=none;startFill=0;startSize=6;endArrow=classic;endFill=1;endSize=6;jettySize=auto;orthogonalLoop=1;strokeWidth=1;dashed=1;fontSize=14;rounded=0;" edge="1" parent="1" source="_C8xXGKPiyyqe-oRyFKB-45">
          <mxGeometry width="60" height="60" relative="1" as="geometry">
            <mxPoint x="-1130" y="560" as="sourcePoint" />
            <mxPoint x="-1654" y="560" as="targetPoint" />
          </mxGeometry>
        </mxCell>
        <mxCell id="_C8xXGKPiyyqe-oRyFKB-51" value="account added" style="text;html=1;align=center;verticalAlign=middle;resizable=0;points=[];autosize=1;strokeColor=none;fillColor=none;fontSize=12;fontFamily=Helvetica;fontColor=default;" vertex="1" parent="1">
          <mxGeometry x="-1655" y="537" width="100" height="30" as="geometry" />
        </mxCell>
        <mxCell id="_C8xXGKPiyyqe-oRyFKB-52" value="register" style="text;html=1;align=center;verticalAlign=middle;resizable=0;points=[];autosize=1;strokeColor=none;fillColor=none;fontSize=12;fontFamily=Helvetica;fontColor=default;" vertex="1" parent="1">
          <mxGeometry x="-1625" y="180" width="60" height="30" as="geometry" />
        </mxCell>
        <mxCell id="_C8xXGKPiyyqe-oRyFKB-55" value="" style="edgeStyle=none;orthogonalLoop=1;jettySize=auto;html=1;rounded=0;fontFamily=Helvetica;fontSize=12;fontColor=default;" edge="1" parent="1">
          <mxGeometry width="80" relative="1" as="geometry">
            <mxPoint x="-1655" y="619" as="sourcePoint" />
            <mxPoint x="-1127" y="619" as="targetPoint" />
            <Array as="points" />
          </mxGeometry>
        </mxCell>
        <mxCell id="_C8xXGKPiyyqe-oRyFKB-56" value="" style="html=1;labelBackgroundColor=#ffffff;startArrow=none;startFill=0;startSize=6;endArrow=classic;endFill=1;endSize=6;jettySize=auto;orthogonalLoop=1;strokeWidth=1;dashed=1;fontSize=14;rounded=0;" edge="1" parent="1">
          <mxGeometry width="60" height="60" relative="1" as="geometry">
            <mxPoint x="-1127" y="680" as="sourcePoint" />
            <mxPoint x="-1655" y="680" as="targetPoint" />
          </mxGeometry>
        </mxCell>
        <mxCell id="_C8xXGKPiyyqe-oRyFKB-57" value="removeBankAccount" style="text;html=1;align=center;verticalAlign=middle;resizable=0;points=[];autosize=1;strokeColor=none;fillColor=none;fontSize=12;fontFamily=Helvetica;fontColor=default;" vertex="1" parent="1">
          <mxGeometry x="-1625" y="598" width="130" height="30" as="geometry" />
        </mxCell>
        <mxCell id="_C8xXGKPiyyqe-oRyFKB-58" value="account Removed" style="text;html=1;align=center;verticalAlign=middle;resizable=0;points=[];autosize=1;strokeColor=none;fillColor=none;fontSize=12;fontFamily=Helvetica;fontColor=default;" vertex="1" parent="1">
          <mxGeometry x="-1655" y="658" width="120" height="30" as="geometry" />
        </mxCell>
        <mxCell id="_C8xXGKPiyyqe-oRyFKB-61" value="Payment" style="rounded=1;whiteSpace=wrap;html=1;" vertex="1" parent="1">
          <mxGeometry x="-999" y="41" width="80" height="40" as="geometry" />
        </mxCell>
        <mxCell id="_C8xXGKPiyyqe-oRyFKB-62" value="" style="endArrow=none;dashed=1;html=1;rounded=0;" edge="1" parent="1" target="_C8xXGKPiyyqe-oRyFKB-68">
          <mxGeometry width="50" height="50" relative="1" as="geometry">
            <mxPoint x="-959.4200000000001" y="81" as="sourcePoint" />
            <mxPoint x="-959" y="540" as="targetPoint" />
          </mxGeometry>
        </mxCell>
        <mxCell id="_C8xXGKPiyyqe-oRyFKB-63" value="" style="shape=note2;boundedLbl=1;whiteSpace=wrap;html=1;size=10;verticalAlign=top;align=center;strokeColor=default;fontFamily=Helvetica;fontSize=12;fontColor=default;fillColor=default;" vertex="1" parent="1">
          <mxGeometry x="-1220" y="270" width="160" height="30" as="geometry" />
        </mxCell>
        <mxCell id="_C8xXGKPiyyqe-oRyFKB-64" value="Sets twoFactorAuth to true" style="text;html=1;align=center;verticalAlign=middle;resizable=0;points=[];autosize=1;strokeColor=none;fillColor=none;fontSize=12;fontFamily=Helvetica;fontColor=default;" vertex="1" parent="1">
          <mxGeometry x="-1225" y="270" width="170" height="30" as="geometry" />
        </mxCell>
        <mxCell id="_C8xXGKPiyyqe-oRyFKB-65" value="Coupen" style="rounded=1;whiteSpace=wrap;html=1;" vertex="1" parent="1">
          <mxGeometry x="-880" y="41" width="80" height="40" as="geometry" />
        </mxCell>
        <mxCell id="_C8xXGKPiyyqe-oRyFKB-66" value="" style="endArrow=none;dashed=1;html=1;rounded=0;" edge="1" parent="1" source="_C8xXGKPiyyqe-oRyFKB-90">
          <mxGeometry width="50" height="50" relative="1" as="geometry">
            <mxPoint x="-840.4200000000001" y="81" as="sourcePoint" />
            <mxPoint x="-840" y="1800" as="targetPoint" />
          </mxGeometry>
        </mxCell>
        <mxCell id="_C8xXGKPiyyqe-oRyFKB-67" value="" style="edgeStyle=none;orthogonalLoop=1;jettySize=auto;html=1;rounded=0;fontFamily=Helvetica;fontSize=12;fontColor=default;" edge="1" parent="1" target="_C8xXGKPiyyqe-oRyFKB-68">
          <mxGeometry width="80" relative="1" as="geometry">
            <mxPoint x="-1654" y="760" as="sourcePoint" />
            <mxPoint x="-970" y="760" as="targetPoint" />
            <Array as="points" />
          </mxGeometry>
        </mxCell>
        <mxCell id="_C8xXGKPiyyqe-oRyFKB-68" value="" style="html=1;points=[];perimeter=orthogonalPerimeter;outlineConnect=0;targetShapes=umlLifeline;portConstraint=eastwest;newEdgeStyle={&quot;edgeStyle&quot;:&quot;elbowEdgeStyle&quot;,&quot;elbow&quot;:&quot;vertical&quot;,&quot;curved&quot;:0,&quot;rounded&quot;:0};strokeColor=default;fontFamily=Helvetica;fontSize=12;fontColor=default;fillColor=default;" vertex="1" parent="1">
          <mxGeometry x="-965" y="759" width="10" height="241" as="geometry" />
        </mxCell>
        <mxCell id="_C8xXGKPiyyqe-oRyFKB-69" value="makePayment" style="text;html=1;align=center;verticalAlign=middle;resizable=0;points=[];autosize=1;strokeColor=none;fillColor=none;fontSize=12;fontFamily=Helvetica;fontColor=default;" vertex="1" parent="1">
          <mxGeometry x="-1660" y="728" width="100" height="30" as="geometry" />
        </mxCell>
        <mxCell id="_C8xXGKPiyyqe-oRyFKB-72" value="" style="endArrow=none;dashed=1;html=1;rounded=0;fontFamily=Helvetica;fontSize=12;fontColor=default;" edge="1" parent="1" target="_C8xXGKPiyyqe-oRyFKB-45">
          <mxGeometry width="50" height="50" relative="1" as="geometry">
            <mxPoint x="-1120" y="880" as="sourcePoint" />
            <mxPoint x="-1000" y="720" as="targetPoint" />
          </mxGeometry>
        </mxCell>
        <mxCell id="_C8xXGKPiyyqe-oRyFKB-73" value="" style="html=1;points=[];perimeter=orthogonalPerimeter;outlineConnect=0;targetShapes=umlLifeline;portConstraint=eastwest;newEdgeStyle={&quot;edgeStyle&quot;:&quot;elbowEdgeStyle&quot;,&quot;elbow&quot;:&quot;vertical&quot;,&quot;curved&quot;:0,&quot;rounded&quot;:0};strokeColor=default;fontFamily=Helvetica;fontSize=12;fontColor=default;fillColor=default;" vertex="1" parent="1">
          <mxGeometry x="-1126" y="820" width="10" height="60" as="geometry" />
        </mxCell>
        <mxCell id="_C8xXGKPiyyqe-oRyFKB-74" value="" style="edgeStyle=none;orthogonalLoop=1;jettySize=auto;html=1;rounded=0;fontFamily=Helvetica;fontSize=12;fontColor=default;" edge="1" parent="1" source="_C8xXGKPiyyqe-oRyFKB-68">
          <mxGeometry width="80" relative="1" as="geometry">
            <mxPoint x="-1036" y="820" as="sourcePoint" />
            <mxPoint x="-1116" y="820" as="targetPoint" />
            <Array as="points" />
          </mxGeometry>
        </mxCell>
        <mxCell id="_C8xXGKPiyyqe-oRyFKB-75" value="addTransaction" style="text;html=1;align=center;verticalAlign=middle;resizable=0;points=[];autosize=1;strokeColor=none;fillColor=none;fontSize=12;fontFamily=Helvetica;fontColor=default;" vertex="1" parent="1">
          <mxGeometry x="-1111" y="798" width="110" height="30" as="geometry" />
        </mxCell>
        <mxCell id="_C8xXGKPiyyqe-oRyFKB-77" value="" style="html=1;labelBackgroundColor=#ffffff;startArrow=none;startFill=0;startSize=6;endArrow=classic;endFill=1;endSize=6;jettySize=auto;orthogonalLoop=1;strokeWidth=1;dashed=1;fontSize=14;rounded=0;fontFamily=Helvetica;fontColor=default;" edge="1" parent="1" target="_C8xXGKPiyyqe-oRyFKB-68">
          <mxGeometry width="60" height="60" relative="1" as="geometry">
            <mxPoint x="-1115" y="880" as="sourcePoint" />
            <mxPoint x="-1055" y="820" as="targetPoint" />
          </mxGeometry>
        </mxCell>
        <mxCell id="_C8xXGKPiyyqe-oRyFKB-78" value="transaction Added" style="text;html=1;align=center;verticalAlign=middle;resizable=0;points=[];autosize=1;strokeColor=none;fillColor=none;fontSize=12;fontFamily=Helvetica;fontColor=default;" vertex="1" parent="1">
          <mxGeometry x="-1121" y="858" width="120" height="30" as="geometry" />
        </mxCell>
        <mxCell id="_C8xXGKPiyyqe-oRyFKB-81" value="" style="html=1;labelBackgroundColor=#ffffff;startArrow=none;startFill=0;startSize=6;endArrow=classic;endFill=1;endSize=6;jettySize=auto;orthogonalLoop=1;strokeWidth=1;dashed=1;fontSize=14;rounded=0;fontFamily=Helvetica;fontColor=default;" edge="1" parent="1" source="_C8xXGKPiyyqe-oRyFKB-68">
          <mxGeometry width="60" height="60" relative="1" as="geometry">
            <mxPoint x="-1121" y="921" as="sourcePoint" />
            <mxPoint x="-1656" y="921" as="targetPoint" />
          </mxGeometry>
        </mxCell>
        <mxCell id="_C8xXGKPiyyqe-oRyFKB-82" value="" style="html=1;labelBackgroundColor=#ffffff;startArrow=none;startFill=0;startSize=6;endArrow=classic;endFill=1;endSize=6;jettySize=auto;orthogonalLoop=1;strokeWidth=1;dashed=1;fontSize=14;rounded=0;fontFamily=Helvetica;fontColor=default;" edge="1" parent="1">
          <mxGeometry width="60" height="60" relative="1" as="geometry">
            <mxPoint x="-964" y="1000" as="sourcePoint" />
            <mxPoint x="-1655" y="1000" as="targetPoint" />
          </mxGeometry>
        </mxCell>
        <mxCell id="_C8xXGKPiyyqe-oRyFKB-83" value="payment Intiated" style="text;html=1;align=center;verticalAlign=middle;resizable=0;points=[];autosize=1;strokeColor=none;fillColor=none;fontSize=12;fontFamily=Helvetica;fontColor=default;" vertex="1" parent="1">
          <mxGeometry x="-1653" y="896" width="110" height="30" as="geometry" />
        </mxCell>
        <mxCell id="_C8xXGKPiyyqe-oRyFKB-84" value="payment Confirmed" style="text;html=1;align=center;verticalAlign=middle;resizable=0;points=[];autosize=1;strokeColor=none;fillColor=none;fontSize=12;fontFamily=Helvetica;fontColor=default;" vertex="1" parent="1">
          <mxGeometry x="-1655" y="976" width="130" height="30" as="geometry" />
        </mxCell>
        <mxCell id="_C8xXGKPiyyqe-oRyFKB-86" value="intiate" style="html=1;align=left;spacingLeft=2;endArrow=block;rounded=0;edgeStyle=orthogonalEdgeStyle;curved=0;rounded=0;fontFamily=Helvetica;fontSize=12;fontColor=default;" edge="1" parent="1">
          <mxGeometry relative="1" as="geometry">
            <mxPoint x="-955" y="888" as="sourcePoint" />
            <Array as="points">
              <mxPoint x="-930" y="888" />
              <mxPoint x="-930" y="910" />
            </Array>
            <mxPoint x="-955" y="910" as="targetPoint" />
          </mxGeometry>
        </mxCell>
        <mxCell id="_C8xXGKPiyyqe-oRyFKB-87" value="confirm" style="html=1;align=left;spacingLeft=2;endArrow=block;rounded=0;edgeStyle=orthogonalEdgeStyle;curved=0;rounded=0;fontFamily=Helvetica;fontSize=12;fontColor=default;" edge="1" parent="1">
          <mxGeometry relative="1" as="geometry">
            <mxPoint x="-955" y="951" as="sourcePoint" />
            <Array as="points">
              <mxPoint x="-930" y="951" />
              <mxPoint x="-930" y="973" />
            </Array>
            <mxPoint x="-955" y="973" as="targetPoint" />
          </mxGeometry>
        </mxCell>
        <mxCell id="_C8xXGKPiyyqe-oRyFKB-88" value="" style="edgeStyle=none;orthogonalLoop=1;jettySize=auto;html=1;rounded=0;fontFamily=Helvetica;fontSize=12;fontColor=default;" edge="1" parent="1" source="_C8xXGKPiyyqe-oRyFKB-38">
          <mxGeometry width="80" relative="1" as="geometry">
            <mxPoint x="-1653" y="1031" as="sourcePoint" />
            <mxPoint x="-845.9999999999998" y="1031" as="targetPoint" />
            <Array as="points" />
          </mxGeometry>
        </mxCell>
        <mxCell id="_C8xXGKPiyyqe-oRyFKB-89" value="" style="html=1;labelBackgroundColor=#ffffff;startArrow=none;startFill=0;startSize=6;endArrow=classic;endFill=1;endSize=6;jettySize=auto;orthogonalLoop=1;strokeWidth=1;dashed=1;fontSize=14;rounded=0;" edge="1" parent="1">
          <mxGeometry width="60" height="60" relative="1" as="geometry">
            <mxPoint x="-846" y="1073" as="sourcePoint" />
            <mxPoint x="-1655" y="1073" as="targetPoint" />
          </mxGeometry>
        </mxCell>
        <mxCell id="_C8xXGKPiyyqe-oRyFKB-92" value="" style="endArrow=none;dashed=1;html=1;rounded=0;" edge="1" parent="1" target="_C8xXGKPiyyqe-oRyFKB-90">
          <mxGeometry width="50" height="50" relative="1" as="geometry">
            <mxPoint x="-840.4200000000001" y="81" as="sourcePoint" />
            <mxPoint x="-840" y="1170" as="targetPoint" />
          </mxGeometry>
        </mxCell>
        <mxCell id="_C8xXGKPiyyqe-oRyFKB-90" value="" style="html=1;points=[];perimeter=orthogonalPerimeter;outlineConnect=0;targetShapes=umlLifeline;portConstraint=eastwest;newEdgeStyle={&quot;edgeStyle&quot;:&quot;elbowEdgeStyle&quot;,&quot;elbow&quot;:&quot;vertical&quot;,&quot;curved&quot;:0,&quot;rounded&quot;:0};strokeColor=default;fontFamily=Helvetica;fontSize=12;fontColor=default;fillColor=default;" vertex="1" parent="1">
          <mxGeometry x="-846" y="1030" width="10" height="130" as="geometry" />
        </mxCell>
        <mxCell id="_C8xXGKPiyyqe-oRyFKB-94" value="isValid" style="html=1;align=left;spacingLeft=2;endArrow=block;rounded=0;edgeStyle=orthogonalEdgeStyle;curved=0;rounded=0;fontFamily=Helvetica;fontSize=12;fontColor=default;" edge="1" parent="1" source="_C8xXGKPiyyqe-oRyFKB-90">
          <mxGeometry relative="1" as="geometry">
            <mxPoint x="-841" y="1042" as="sourcePoint" />
            <Array as="points">
              <mxPoint x="-811" y="1042" />
              <mxPoint x="-811" y="1062" />
            </Array>
            <mxPoint x="-835" y="1062" as="targetPoint" />
          </mxGeometry>
        </mxCell>
        <mxCell id="_C8xXGKPiyyqe-oRyFKB-95" value="reedemBonus" style="text;html=1;align=center;verticalAlign=middle;resizable=0;points=[];autosize=1;strokeColor=none;fillColor=none;fontSize=12;fontFamily=Helvetica;fontColor=default;" vertex="1" parent="1">
          <mxGeometry x="-1662" y="1008" width="100" height="30" as="geometry" />
        </mxCell>
        <mxCell id="_C8xXGKPiyyqe-oRyFKB-96" value="coupen recieved" style="text;html=1;align=center;verticalAlign=middle;resizable=0;points=[];autosize=1;strokeColor=none;fillColor=none;fontSize=12;fontFamily=Helvetica;fontColor=default;" vertex="1" parent="1">
          <mxGeometry x="-1657" y="1050" width="110" height="30" as="geometry" />
        </mxCell>
        <mxCell id="_C8xXGKPiyyqe-oRyFKB-97" value="" style="endArrow=none;dashed=1;html=1;rounded=0;fontFamily=Helvetica;fontSize=12;fontColor=default;" edge="1" parent="1" source="_C8xXGKPiyyqe-oRyFKB-98" target="_C8xXGKPiyyqe-oRyFKB-68">
          <mxGeometry width="50" height="50" relative="1" as="geometry">
            <mxPoint x="-960" y="1310" as="sourcePoint" />
            <mxPoint x="-940" y="840" as="targetPoint" />
          </mxGeometry>
        </mxCell>
        <mxCell id="_C8xXGKPiyyqe-oRyFKB-99" value="" style="endArrow=none;dashed=1;html=1;rounded=0;fontFamily=Helvetica;fontSize=12;fontColor=default;" edge="1" parent="1" target="_C8xXGKPiyyqe-oRyFKB-98">
          <mxGeometry width="50" height="50" relative="1" as="geometry">
            <mxPoint x="-960" y="1480" as="sourcePoint" />
            <mxPoint x="-960" y="1000" as="targetPoint" />
          </mxGeometry>
        </mxCell>
        <mxCell id="_C8xXGKPiyyqe-oRyFKB-98" value="" style="html=1;points=[];perimeter=orthogonalPerimeter;outlineConnect=0;targetShapes=umlLifeline;portConstraint=eastwest;newEdgeStyle={&quot;edgeStyle&quot;:&quot;elbowEdgeStyle&quot;,&quot;elbow&quot;:&quot;vertical&quot;,&quot;curved&quot;:0,&quot;rounded&quot;:0};strokeColor=default;fontFamily=Helvetica;fontSize=12;fontColor=default;fillColor=default;" vertex="1" parent="1">
          <mxGeometry x="-965" y="1120" width="10" height="40" as="geometry" />
        </mxCell>
        <mxCell id="_C8xXGKPiyyqe-oRyFKB-100" value="" style="edgeStyle=none;orthogonalLoop=1;jettySize=auto;html=1;rounded=0;fontFamily=Helvetica;fontSize=12;fontColor=default;" edge="1" parent="1" target="_C8xXGKPiyyqe-oRyFKB-90">
          <mxGeometry width="80" relative="1" as="geometry">
            <mxPoint x="-956" y="1120" as="sourcePoint" />
            <mxPoint x="-876" y="1120" as="targetPoint" />
            <Array as="points" />
          </mxGeometry>
        </mxCell>
        <mxCell id="_C8xXGKPiyyqe-oRyFKB-101" value="applyCoupen" style="text;html=1;align=center;verticalAlign=middle;resizable=0;points=[];autosize=1;strokeColor=none;fillColor=none;fontSize=12;fontFamily=Helvetica;fontColor=default;" vertex="1" parent="1">
          <mxGeometry x="-959" y="1097" width="90" height="30" as="geometry" />
        </mxCell>
        <mxCell id="_C8xXGKPiyyqe-oRyFKB-102" value="" style="html=1;labelBackgroundColor=#ffffff;startArrow=none;startFill=0;startSize=6;endArrow=classic;endFill=1;endSize=6;jettySize=auto;orthogonalLoop=1;strokeWidth=1;dashed=1;fontSize=14;rounded=0;fontFamily=Helvetica;fontColor=default;" edge="1" parent="1" source="_C8xXGKPiyyqe-oRyFKB-90">
          <mxGeometry width="60" height="60" relative="1" as="geometry">
            <mxPoint x="-870" y="1159" as="sourcePoint" />
            <mxPoint x="-955" y="1159" as="targetPoint" />
          </mxGeometry>
        </mxCell>
        <mxCell id="_C8xXGKPiyyqe-oRyFKB-103" value="coupen Applied" style="text;html=1;align=center;verticalAlign=middle;resizable=0;points=[];autosize=1;strokeColor=none;fillColor=none;fontSize=12;fontFamily=Helvetica;fontColor=default;" vertex="1" parent="1">
          <mxGeometry x="-965" y="1138" width="110" height="30" as="geometry" />
        </mxCell>
        <mxCell id="_C8xXGKPiyyqe-oRyFKB-104" value="" style="shape=mxgraph.mockup.markup.redX;fillColor=#ff0000;html=1;shadow=0;whiteSpace=wrap;strokeColor=none;fontFamily=Helvetica;fontSize=12;fontColor=default;" vertex="1" parent="1">
          <mxGeometry x="-850" y="1154" width="10" height="10" as="geometry" />
        </mxCell>
        <mxCell id="_C8xXGKPiyyqe-oRyFKB-106" value="" style="shape=note2;boundedLbl=1;whiteSpace=wrap;html=1;size=14;verticalAlign=top;align=center;strokeColor=default;fontFamily=Helvetica;fontSize=12;fontColor=default;fillColor=default;" vertex="1" parent="1">
          <mxGeometry x="-830" y="1140" width="220" height="30" as="geometry" />
        </mxCell>
        <mxCell id="_C8xXGKPiyyqe-oRyFKB-107" value="Coupon destroyed after application" style="text;html=1;align=center;verticalAlign=middle;resizable=0;points=[];autosize=1;strokeColor=none;fillColor=none;fontSize=12;fontFamily=Helvetica;fontColor=default;" vertex="1" parent="1">
          <mxGeometry x="-830" y="1144" width="210" height="30" as="geometry" />
        </mxCell>
        <mxCell id="_C8xXGKPiyyqe-oRyFKB-108" value="" style="endArrow=classic;html=1;rounded=0;fontFamily=Helvetica;fontSize=12;fontColor=default;" edge="1" parent="1">
          <mxGeometry width="50" height="50" relative="1" as="geometry">
            <mxPoint x="-1655" y="1119.0000000000002" as="sourcePoint" />
            <mxPoint x="-1125.9999999999998" y="1119.0000000000002" as="targetPoint" />
            <Array as="points">
              <mxPoint x="-1583" y="1119" />
            </Array>
          </mxGeometry>
        </mxCell>
        <mxCell id="_C8xXGKPiyyqe-oRyFKB-110" value="" style="endArrow=none;dashed=1;html=1;rounded=0;fontFamily=Helvetica;fontSize=12;fontColor=default;entryX=0.006;entryY=0.732;entryDx=0;entryDy=0;entryPerimeter=0;" edge="1" parent="1" source="_C8xXGKPiyyqe-oRyFKB-112" target="_C8xXGKPiyyqe-oRyFKB-78">
          <mxGeometry width="50" height="50" relative="1" as="geometry">
            <mxPoint x="-1120" y="1330" as="sourcePoint" />
            <mxPoint x="-1360" y="850" as="targetPoint" />
          </mxGeometry>
        </mxCell>
        <mxCell id="_C8xXGKPiyyqe-oRyFKB-111" value="&lt;span style=&quot;color: rgb(0, 0, 0); font-family: Helvetica; font-size: 12px; font-style: normal; font-variant-ligatures: normal; font-variant-caps: normal; font-weight: 400; letter-spacing: normal; orphans: 2; text-align: center; text-indent: 0px; text-transform: none; widows: 2; word-spacing: 0px; -webkit-text-stroke-width: 0px; background-color: rgb(251, 251, 251); text-decoration-thickness: initial; text-decoration-style: initial; text-decoration-color: initial; float: none; display: inline !important;&quot;&gt;checkBankBalance&lt;/span&gt;" style="text;whiteSpace=wrap;html=1;fontSize=12;fontFamily=Helvetica;fontColor=default;" vertex="1" parent="1">
          <mxGeometry x="-1655" y="1097" width="140" height="40" as="geometry" />
        </mxCell>
        <mxCell id="_C8xXGKPiyyqe-oRyFKB-113" value="" style="endArrow=none;dashed=1;html=1;rounded=0;fontFamily=Helvetica;fontSize=12;fontColor=default;" edge="1" parent="1" target="_C8xXGKPiyyqe-oRyFKB-112">
          <mxGeometry width="50" height="50" relative="1" as="geometry">
            <mxPoint x="-1120" y="1800" as="sourcePoint" />
            <mxPoint x="-1120" y="880" as="targetPoint" />
          </mxGeometry>
        </mxCell>
        <mxCell id="_C8xXGKPiyyqe-oRyFKB-112" value="" style="html=1;points=[];perimeter=orthogonalPerimeter;outlineConnect=0;targetShapes=umlLifeline;portConstraint=eastwest;newEdgeStyle={&quot;edgeStyle&quot;:&quot;elbowEdgeStyle&quot;,&quot;elbow&quot;:&quot;vertical&quot;,&quot;curved&quot;:0,&quot;rounded&quot;:0};strokeColor=default;fontFamily=Helvetica;fontSize=12;fontColor=default;fillColor=default;" vertex="1" parent="1">
          <mxGeometry x="-1126" y="1118" width="10" height="42" as="geometry" />
        </mxCell>
        <mxCell id="_C8xXGKPiyyqe-oRyFKB-114" value="" style="html=1;labelBackgroundColor=#ffffff;startArrow=none;startFill=0;startSize=6;endArrow=classic;endFill=1;endSize=6;jettySize=auto;orthogonalLoop=1;strokeWidth=1;dashed=1;fontSize=14;rounded=0;fontFamily=Helvetica;fontColor=default;" edge="1" parent="1" source="_C8xXGKPiyyqe-oRyFKB-112">
          <mxGeometry width="60" height="60" relative="1" as="geometry">
            <mxPoint x="-964" y="1161" as="sourcePoint" />
            <mxPoint x="-1655" y="1161" as="targetPoint" />
          </mxGeometry>
        </mxCell>
        <mxCell id="_C8xXGKPiyyqe-oRyFKB-115" value="&amp;nbsp; &amp;nbsp;balance" style="text;html=1;align=center;verticalAlign=middle;resizable=0;points=[];autosize=1;strokeColor=none;fillColor=none;fontSize=12;fontFamily=Helvetica;fontColor=default;" vertex="1" parent="1">
          <mxGeometry x="-1661" y="1138" width="80" height="30" as="geometry" />
        </mxCell>
        <mxCell id="_C8xXGKPiyyqe-oRyFKB-116" value="" style="endArrow=classic;html=1;rounded=0;fontFamily=Helvetica;fontSize=12;fontColor=default;" edge="1" parent="1">
          <mxGeometry width="50" height="50" relative="1" as="geometry">
            <mxPoint x="-1654" y="1191.0000000000002" as="sourcePoint" />
            <mxPoint x="-1124.9999999999998" y="1191.0000000000002" as="targetPoint" />
            <Array as="points">
              <mxPoint x="-1582" y="1191" />
            </Array>
          </mxGeometry>
        </mxCell>
        <mxCell id="_C8xXGKPiyyqe-oRyFKB-117" value="" style="html=1;points=[];perimeter=orthogonalPerimeter;outlineConnect=0;targetShapes=umlLifeline;portConstraint=eastwest;newEdgeStyle={&quot;edgeStyle&quot;:&quot;elbowEdgeStyle&quot;,&quot;elbow&quot;:&quot;vertical&quot;,&quot;curved&quot;:0,&quot;rounded&quot;:0};strokeColor=default;fontFamily=Helvetica;fontSize=12;fontColor=default;fillColor=default;" vertex="1" parent="1">
          <mxGeometry x="-1125" y="1190" width="10" height="42" as="geometry" />
        </mxCell>
        <mxCell id="_C8xXGKPiyyqe-oRyFKB-118" value="" style="html=1;labelBackgroundColor=#ffffff;startArrow=none;startFill=0;startSize=6;endArrow=classic;endFill=1;endSize=6;jettySize=auto;orthogonalLoop=1;strokeWidth=1;dashed=1;fontSize=14;rounded=0;fontFamily=Helvetica;fontColor=default;" edge="1" parent="1" source="_C8xXGKPiyyqe-oRyFKB-117">
          <mxGeometry width="60" height="60" relative="1" as="geometry">
            <mxPoint x="-963" y="1233" as="sourcePoint" />
            <mxPoint x="-1654" y="1233" as="targetPoint" />
          </mxGeometry>
        </mxCell>
        <mxCell id="_C8xXGKPiyyqe-oRyFKB-119" value="viewTransactionHistory" style="text;html=1;align=center;verticalAlign=middle;resizable=0;points=[];autosize=1;strokeColor=none;fillColor=none;fontSize=12;fontFamily=Helvetica;fontColor=default;" vertex="1" parent="1">
          <mxGeometry x="-1661" y="1167" width="150" height="30" as="geometry" />
        </mxCell>
        <mxCell id="_C8xXGKPiyyqe-oRyFKB-121" value="transaction history" style="text;html=1;align=center;verticalAlign=middle;resizable=0;points=[];autosize=1;strokeColor=none;fillColor=none;fontSize=12;fontFamily=Helvetica;fontColor=default;" vertex="1" parent="1">
          <mxGeometry x="-1650" y="1210" width="120" height="30" as="geometry" />
        </mxCell>
        <mxCell id="_C8xXGKPiyyqe-oRyFKB-124" value="submitfeedback" style="html=1;align=left;spacingLeft=2;endArrow=block;rounded=0;edgeStyle=orthogonalEdgeStyle;curved=0;rounded=0;fontFamily=Helvetica;fontSize=12;fontColor=default;" edge="1" parent="1">
          <mxGeometry relative="1" as="geometry">
            <mxPoint x="-1655" y="1260" as="sourcePoint" />
            <Array as="points">
              <mxPoint x="-1630" y="1260" />
              <mxPoint x="-1630" y="1282" />
            </Array>
            <mxPoint x="-1655" y="1282" as="targetPoint" />
          </mxGeometry>
        </mxCell>
        <mxCell id="_C8xXGKPiyyqe-oRyFKB-125" value="feedback submitted" style="html=1;align=left;spacingLeft=2;endArrow=block;rounded=0;edgeStyle=orthogonalEdgeStyle;curved=0;rounded=0;fontFamily=Helvetica;fontSize=12;fontColor=default;dashed=1;" edge="1" parent="1">
          <mxGeometry relative="1" as="geometry">
            <mxPoint x="-1655" y="1308" as="sourcePoint" />
            <Array as="points">
              <mxPoint x="-1630" y="1308" />
              <mxPoint x="-1630" y="1330" />
            </Array>
            <mxPoint x="-1655" y="1330" as="targetPoint" />
          </mxGeometry>
        </mxCell>
        <mxCell id="_C8xXGKPiyyqe-oRyFKB-128" value="" style="html=1;points=[];perimeter=orthogonalPerimeter;outlineConnect=0;targetShapes=umlLifeline;portConstraint=eastwest;newEdgeStyle={&quot;edgeStyle&quot;:&quot;elbowEdgeStyle&quot;,&quot;elbow&quot;:&quot;vertical&quot;,&quot;curved&quot;:0,&quot;rounded&quot;:0};strokeColor=default;fontFamily=Helvetica;fontSize=12;fontColor=default;fillColor=default;" vertex="1" parent="1">
          <mxGeometry x="-1465" y="1360" width="10" height="320" as="geometry" />
        </mxCell>
        <mxCell id="_C8xXGKPiyyqe-oRyFKB-129" value="" style="html=1;align=left;spacingLeft=2;endArrow=block;rounded=0;rounded=0;fontFamily=Helvetica;fontSize=12;fontColor=default;" edge="1" parent="1">
          <mxGeometry relative="1" as="geometry">
            <mxPoint x="-1465" y="1360" as="sourcePoint" />
            <mxPoint x="-1655" y="1360" as="targetPoint" />
          </mxGeometry>
        </mxCell>
        <mxCell id="_C8xXGKPiyyqe-oRyFKB-130" value="" style="html=1;align=left;spacingLeft=2;endArrow=block;rounded=0;rounded=0;fontFamily=Helvetica;fontSize=12;fontColor=default;dashed=1;" edge="1" parent="1">
          <mxGeometry relative="1" as="geometry">
            <mxPoint x="-1655" y="1410" as="sourcePoint" />
            <mxPoint x="-1466" y="1410" as="targetPoint" />
          </mxGeometry>
        </mxCell>
        <mxCell id="_C8xXGKPiyyqe-oRyFKB-131" value="" style="html=1;points=[];perimeter=orthogonalPerimeter;outlineConnect=0;targetShapes=umlLifeline;portConstraint=eastwest;newEdgeStyle={&quot;edgeStyle&quot;:&quot;elbowEdgeStyle&quot;,&quot;elbow&quot;:&quot;vertical&quot;,&quot;curved&quot;:0,&quot;rounded&quot;:0};strokeColor=default;fontFamily=Helvetica;fontSize=12;fontColor=default;fillColor=default;" vertex="1" parent="1">
          <mxGeometry x="-965" y="1480" width="10" height="120" as="geometry" />
        </mxCell>
        <mxCell id="_C8xXGKPiyyqe-oRyFKB-132" value="" style="endArrow=classic;html=1;rounded=0;fontFamily=Helvetica;fontSize=12;fontColor=default;" edge="1" parent="1" source="_C8xXGKPiyyqe-oRyFKB-128">
          <mxGeometry width="50" height="50" relative="1" as="geometry">
            <mxPoint x="-1450" y="1480" as="sourcePoint" />
            <mxPoint x="-963.9999999999998" y="1480.0000000000002" as="targetPoint" />
            <Array as="points">
              <mxPoint x="-1421" y="1480" />
            </Array>
          </mxGeometry>
        </mxCell>
        <mxCell id="_C8xXGKPiyyqe-oRyFKB-133" value="" style="html=1;labelBackgroundColor=#ffffff;startArrow=none;startFill=0;startSize=6;endArrow=classic;endFill=1;endSize=6;jettySize=auto;orthogonalLoop=1;strokeWidth=1;dashed=1;fontSize=14;rounded=0;fontFamily=Helvetica;fontColor=default;" edge="1" parent="1" source="_C8xXGKPiyyqe-oRyFKB-131">
          <mxGeometry width="60" height="60" relative="1" as="geometry">
            <mxPoint x="-926" y="1519.5" as="sourcePoint" />
            <mxPoint x="-1455" y="1520.5" as="targetPoint" />
          </mxGeometry>
        </mxCell>
        <mxCell id="_C8xXGKPiyyqe-oRyFKB-134" value="" style="endArrow=classic;html=1;rounded=0;fontFamily=Helvetica;fontSize=12;fontColor=default;" edge="1" parent="1">
          <mxGeometry width="50" height="50" relative="1" as="geometry">
            <mxPoint x="-1455" y="1559" as="sourcePoint" />
            <mxPoint x="-963.9999999999998" y="1559.0000000000002" as="targetPoint" />
            <Array as="points">
              <mxPoint x="-1421" y="1559" />
            </Array>
          </mxGeometry>
        </mxCell>
        <mxCell id="_C8xXGKPiyyqe-oRyFKB-135" value="" style="html=1;labelBackgroundColor=#ffffff;startArrow=none;startFill=0;startSize=6;endArrow=classic;endFill=1;endSize=6;jettySize=auto;orthogonalLoop=1;strokeWidth=1;dashed=1;fontSize=14;rounded=0;fontFamily=Helvetica;fontColor=default;" edge="1" parent="1">
          <mxGeometry width="60" height="60" relative="1" as="geometry">
            <mxPoint x="-965" y="1600" as="sourcePoint" />
            <mxPoint x="-1455" y="1599.5" as="targetPoint" />
          </mxGeometry>
        </mxCell>
        <mxCell id="_C8xXGKPiyyqe-oRyFKB-136" value="monitorTrasactions" style="text;html=1;align=center;verticalAlign=middle;resizable=0;points=[];autosize=1;strokeColor=none;fillColor=none;fontSize=12;fontFamily=Helvetica;fontColor=default;" vertex="1" parent="1">
          <mxGeometry x="-1463" y="1459" width="130" height="30" as="geometry" />
        </mxCell>
        <mxCell id="_C8xXGKPiyyqe-oRyFKB-138" value="flagFraudulentTransaction" style="text;html=1;align=center;verticalAlign=middle;resizable=0;points=[];autosize=1;strokeColor=none;fillColor=none;fontSize=12;fontFamily=Helvetica;fontColor=default;" vertex="1" parent="1">
          <mxGeometry x="-1430" y="1537" width="160" height="30" as="geometry" />
        </mxCell>
        <mxCell id="_C8xXGKPiyyqe-oRyFKB-139" value="transcation flagged" style="text;html=1;align=center;verticalAlign=middle;resizable=0;points=[];autosize=1;strokeColor=none;fillColor=none;fontSize=12;fontFamily=Helvetica;fontColor=default;" vertex="1" parent="1">
          <mxGeometry x="-1453" y="1576" width="120" height="30" as="geometry" />
        </mxCell>
        <mxCell id="_C8xXGKPiyyqe-oRyFKB-141" value="" style="endArrow=none;dashed=1;html=1;rounded=0;" edge="1" parent="1" target="_C8xXGKPiyyqe-oRyFKB-140">
          <mxGeometry width="50" height="50" relative="1" as="geometry">
            <mxPoint x="-1660" y="300" as="sourcePoint" />
            <mxPoint x="-1660" y="1680" as="targetPoint" />
          </mxGeometry>
        </mxCell>
        <mxCell id="_C8xXGKPiyyqe-oRyFKB-140" value="" style="html=1;points=[];perimeter=orthogonalPerimeter;outlineConnect=0;targetShapes=umlLifeline;portConstraint=eastwest;newEdgeStyle={&quot;edgeStyle&quot;:&quot;elbowEdgeStyle&quot;,&quot;elbow&quot;:&quot;vertical&quot;,&quot;curved&quot;:0,&quot;rounded&quot;:0};strokeColor=default;fontFamily=Helvetica;fontSize=12;fontColor=default;fillColor=default;" vertex="1" parent="1">
          <mxGeometry x="-1665" y="1620" width="10" height="50" as="geometry" />
        </mxCell>
        <mxCell id="_C8xXGKPiyyqe-oRyFKB-142" value="generateReports" style="text;html=1;align=center;verticalAlign=middle;resizable=0;points=[];autosize=1;strokeColor=none;fillColor=none;fontSize=12;fontFamily=Helvetica;fontColor=default;" vertex="1" parent="1">
          <mxGeometry x="-1641" y="1338" width="110" height="30" as="geometry" />
        </mxCell>
        <mxCell id="_C8xXGKPiyyqe-oRyFKB-143" value="&lt;span style=&quot;color: rgb(0, 0, 0); font-family: Helvetica; font-size: 12px; font-style: normal; font-variant-ligatures: normal; font-variant-caps: normal; font-weight: 400; letter-spacing: normal; orphans: 2; text-align: left; text-indent: 0px; text-transform: none; widows: 2; word-spacing: 0px; -webkit-text-stroke-width: 0px; background-color: rgb(255, 255, 255); text-decoration-thickness: initial; text-decoration-style: initial; text-decoration-color: initial; float: none; display: inline !important;&quot;&gt;generated report&lt;/span&gt;" style="text;whiteSpace=wrap;html=1;fontSize=12;fontFamily=Helvetica;fontColor=default;" vertex="1" parent="1">
          <mxGeometry x="-1653" y="1387" width="93" height="40" as="geometry" />
        </mxCell>
        <mxCell id="_C8xXGKPiyyqe-oRyFKB-144" value="" style="edgeStyle=none;orthogonalLoop=1;jettySize=auto;html=1;rounded=0;fontFamily=Helvetica;fontSize=12;fontColor=default;" edge="1" parent="1">
          <mxGeometry width="80" relative="1" as="geometry">
            <mxPoint x="-1465" y="1620" as="sourcePoint" />
            <mxPoint x="-1655" y="1620" as="targetPoint" />
            <Array as="points" />
          </mxGeometry>
        </mxCell>
        <mxCell id="_C8xXGKPiyyqe-oRyFKB-145" value="" style="edgeStyle=none;orthogonalLoop=1;jettySize=auto;html=1;rounded=0;fontFamily=Helvetica;fontSize=12;fontColor=default;dashed=1;" edge="1" parent="1">
          <mxGeometry width="80" relative="1" as="geometry">
            <mxPoint x="-1654" y="1670" as="sourcePoint" />
            <mxPoint x="-1464" y="1670" as="targetPoint" />
            <Array as="points" />
          </mxGeometry>
        </mxCell>
        <mxCell id="_C8xXGKPiyyqe-oRyFKB-146" value="manageUserAccount" style="text;html=1;align=center;verticalAlign=middle;resizable=0;points=[];autosize=1;strokeColor=none;fillColor=none;fontSize=12;fontFamily=Helvetica;fontColor=default;" vertex="1" parent="1">
          <mxGeometry x="-1653" y="1597" width="140" height="30" as="geometry" />
        </mxCell>
        <mxCell id="_C8xXGKPiyyqe-oRyFKB-147" value="user accounts manged" style="text;html=1;align=center;verticalAlign=middle;resizable=0;points=[];autosize=1;strokeColor=none;fillColor=none;fontSize=12;fontFamily=Helvetica;fontColor=default;" vertex="1" parent="1">
          <mxGeometry x="-1660" y="1646" width="140" height="30" as="geometry" />
        </mxCell>
        <mxCell id="_C8xXGKPiyyqe-oRyFKB-148" value="" style="endArrow=none;dashed=1;html=1;rounded=0;fontFamily=Helvetica;fontSize=12;fontColor=default;" edge="1" parent="1">
          <mxGeometry width="50" height="50" relative="1" as="geometry">
            <mxPoint x="-1460" y="1800" as="sourcePoint" />
            <mxPoint x="-1460" y="1680" as="targetPoint" />
          </mxGeometry>
        </mxCell>
        <mxCell id="_C8xXGKPiyyqe-oRyFKB-149" value="" style="endArrow=none;dashed=1;html=1;rounded=0;fontFamily=Helvetica;fontSize=12;fontColor=default;" edge="1" parent="1" target="_C8xXGKPiyyqe-oRyFKB-131">
          <mxGeometry width="50" height="50" relative="1" as="geometry">
            <mxPoint x="-960" y="1800" as="sourcePoint" />
            <mxPoint x="-1130" y="1630" as="targetPoint" />
          </mxGeometry>
        </mxCell>
        <mxCell id="_C8xXGKPiyyqe-oRyFKB-158" value="" style="html=1;points=[];perimeter=orthogonalPerimeter;outlineConnect=0;targetShapes=umlLifeline;portConstraint=eastwest;newEdgeStyle={&quot;edgeStyle&quot;:&quot;elbowEdgeStyle&quot;,&quot;elbow&quot;:&quot;vertical&quot;,&quot;curved&quot;:0,&quot;rounded&quot;:0};strokeColor=default;fontFamily=Helvetica;fontSize=12;fontColor=default;fillColor=default;" vertex="1" parent="1">
          <mxGeometry x="-1245" y="1710" width="10" height="50" as="geometry" />
        </mxCell>
        <mxCell id="_C8xXGKPiyyqe-oRyFKB-159" value="" style="edgeStyle=none;orthogonalLoop=1;jettySize=auto;html=1;rounded=0;fontFamily=Helvetica;fontSize=12;fontColor=default;" edge="1" parent="1" target="_C8xXGKPiyyqe-oRyFKB-158">
          <mxGeometry width="80" relative="1" as="geometry">
            <mxPoint x="-1660" y="1709.17" as="sourcePoint" />
            <mxPoint x="-1240" y="1700" as="targetPoint" />
            <Array as="points" />
          </mxGeometry>
        </mxCell>
        <mxCell id="_C8xXGKPiyyqe-oRyFKB-160" value="" style="edgeStyle=none;orthogonalLoop=1;jettySize=auto;html=1;rounded=0;fontFamily=Helvetica;fontSize=12;fontColor=default;dashed=1;" edge="1" parent="1" source="_C8xXGKPiyyqe-oRyFKB-158">
          <mxGeometry width="80" relative="1" as="geometry">
            <mxPoint x="-1469" y="1759.17" as="sourcePoint" />
            <mxPoint x="-1659" y="1759.17" as="targetPoint" />
            <Array as="points" />
          </mxGeometry>
        </mxCell>
        <mxCell id="_C8xXGKPiyyqe-oRyFKB-161" value="disable2FA" style="text;html=1;align=center;verticalAlign=middle;resizable=0;points=[];autosize=1;strokeColor=none;fillColor=none;fontSize=12;fontFamily=Helvetica;fontColor=default;" vertex="1" parent="1">
          <mxGeometry x="-1660" y="1688" width="80" height="30" as="geometry" />
        </mxCell>
        <mxCell id="_C8xXGKPiyyqe-oRyFKB-162" value="2FA Disabled" style="text;html=1;align=center;verticalAlign=middle;resizable=0;points=[];autosize=1;strokeColor=none;fillColor=none;fontSize=12;fontFamily=Helvetica;fontColor=default;" vertex="1" parent="1">
          <mxGeometry x="-1657" y="1737" width="90" height="30" as="geometry" />
        </mxCell>
        <mxCell id="_C8xXGKPiyyqe-oRyFKB-38" value="" style="html=1;points=[];perimeter=orthogonalPerimeter;outlineConnect=0;targetShapes=umlLifeline;portConstraint=eastwest;newEdgeStyle={&quot;edgeStyle&quot;:&quot;elbowEdgeStyle&quot;,&quot;elbow&quot;:&quot;vertical&quot;,&quot;curved&quot;:0,&quot;rounded&quot;:0};strokeColor=default;fontFamily=Helvetica;fontSize=12;fontColor=default;fillColor=default;" vertex="1" parent="1">
          <mxGeometry x="-1665" y="173" width="10" height="1237" as="geometry" />
        </mxCell>
        <mxCell id="_C8xXGKPiyyqe-oRyFKB-163" value="" style="endArrow=none;dashed=1;html=1;rounded=0;" edge="1" parent="1" target="_C8xXGKPiyyqe-oRyFKB-137">
          <mxGeometry width="50" height="50" relative="1" as="geometry">
            <mxPoint x="-1354" y="440" as="sourcePoint" />
            <mxPoint x="-1350" y="1800" as="targetPoint" />
          </mxGeometry>
        </mxCell>
        <mxCell id="_C8xXGKPiyyqe-oRyFKB-137" value="List of monitored transactions" style="text;html=1;align=center;verticalAlign=middle;resizable=0;points=[];autosize=1;strokeColor=none;fillColor=none;fontSize=12;fontFamily=Helvetica;fontColor=default;" vertex="1" parent="1">
          <mxGeometry x="-1456" y="1498" width="180" height="30" as="geometry" />
        </mxCell>
      </root>
    </mxGraphModel>
  </diagram>
</mxfile>
